<svg width="57" height="66" viewBox="0 0 57 66" fill="none" xmlns="http://www.w3.org/2000/svg">
<path d="M46.6808 62.9325C43.0607 66.3923 39.1082 65.846 35.3034 64.2071C31.277 62.5318 27.583 62.459 23.335 64.2071C18.0157 66.4651 15.2083 65.8096 12.0315 62.9325C-5.995 44.6136 -3.33535 16.7164 17.1292 15.6967C22.116 15.9516 25.5883 18.3917 28.5065 18.6102C32.8654 17.7362 37.0396 15.2232 41.694 15.551C47.2718 15.9881 51.4829 18.1732 54.2534 22.1065C42.7283 28.9169 45.4618 43.8852 56.0265 48.0734C53.9209 53.5363 51.1874 58.9628 46.6439 62.9689L46.6808 62.9325ZM28.1371 15.4782C27.583 7.35669 34.2691 0.655546 41.9525 0C43.0238 9.39617 33.3087 16.3887 28.1371 15.4782Z" fill="#E9E9EA"/>
</svg>
