<svg width="113" height="120" viewBox="0 0 113 120" fill="none" xmlns="http://www.w3.org/2000/svg">
<path d="M7.53333 15C7.53333 11.0218 9.12071 7.20644 11.9463 4.3934C14.7718 1.58035 18.6041 0 22.6 0L67.8 0C71.7959 0 75.6282 1.58035 78.4537 4.3934C81.2793 7.20644 82.8667 11.0218 82.8667 15V75C86.8626 75 90.6949 76.5804 93.5204 79.3934C96.3459 82.2064 97.9333 86.0218 97.9333 90V93.75C97.9333 94.7446 98.3302 95.6984 99.0366 96.4017C99.7429 97.1049 100.701 97.5 101.7 97.5C102.699 97.5 103.657 97.1049 104.363 96.4017C105.07 95.6984 105.467 94.7446 105.467 93.75V67.5C105.467 65.565 104.683 64.6725 102.777 62.7375L102.725 62.6775C100.788 60.72 97.9333 57.825 97.9333 52.5V30C97.9324 29.5072 98.0291 29.0191 98.2178 28.5635C98.4066 28.108 98.6836 27.6939 99.0332 27.345L102.8 23.595C103.15 23.2458 103.565 22.9687 104.023 22.7797C104.481 22.5906 104.971 22.4933 105.467 22.4933C105.962 22.4933 106.453 22.5906 106.91 22.7797C107.368 22.9687 107.784 23.2458 108.133 23.595L111.9 27.345C112.25 27.6939 112.527 28.108 112.715 28.5635C112.904 29.0191 113.001 29.5072 113 30V93.75C113 96.7337 111.809 99.5952 109.69 101.705C107.571 103.815 104.697 105 101.7 105C98.703 105 95.8288 103.815 93.7097 101.705C91.5905 99.5952 90.4 96.7337 90.4 93.75V90C90.4 88.0109 89.6063 86.1032 88.1935 84.6967C86.7808 83.2902 84.8646 82.5 82.8667 82.5V112.5H86.6333C87.6323 112.5 88.5904 112.895 89.2968 113.598C90.0032 114.302 90.4 115.255 90.4 116.25C90.4 117.245 90.0032 118.198 89.2968 118.902C88.5904 119.605 87.6323 120 86.6333 120H3.76667C2.76768 120 1.80962 119.605 1.10323 118.902C0.396844 118.198 0 117.245 0 116.25C0 115.255 0.396844 114.302 1.10323 113.598C1.80962 112.895 2.76768 112.5 3.76667 112.5H7.53333V15ZM22.6 18.75V56.25C22.6 57.2446 22.9968 58.1984 23.7032 58.9016C24.4096 59.6049 25.3677 60 26.3667 60H64.0333C65.0323 60 65.9904 59.6049 66.6968 58.9016C67.4032 58.1984 67.8 57.2446 67.8 56.25V18.75C67.8 17.7554 67.4032 16.8016 66.6968 16.0984C65.9904 15.3951 65.0323 15 64.0333 15H26.3667C25.3677 15 24.4096 15.3951 23.7032 16.0984C22.9968 16.8016 22.6 17.7554 22.6 18.75ZM42.4202 93.45H31.188V86.7525H41.7573V82.965H31.188V76.5525H42.4127V72.5025H26.2537V97.5H42.4202V93.45ZM52.3341 97.5H58.3155L66.6474 72.5025H61.1255L55.5508 92.115H55.3173L49.6899 72.5025H43.9344L52.3341 97.5Z" fill="#49945A"/>
</svg>
