<svg width="66" height="60" viewBox="0 0 66 60" fill="none" xmlns="http://www.w3.org/2000/svg">
<path fill-rule="evenodd" clip-rule="evenodd" d="M21.3927 2.83654e-06C19.8994 2.96708e-06 18.6889 1.21056 18.6889 2.70385C18.6889 4.19715 19.8994 5.4077 21.3927 5.4077L53.8389 5.4077C55.3322 5.4077 56.5428 4.19714 56.5428 2.70385C56.5428 1.21055 55.3322 -1.30545e-07 53.8389 0L21.3927 2.83654e-06ZM62.3367 49.4461C60.8434 49.4461 59.6329 48.2356 59.6329 46.7423V31.835C59.6329 24.6212 51.2567 20.6423 45.665 25.2001L4.41223 58.8248C3.25473 59.7683 1.55156 59.5947 0.608097 58.4372C-0.335368 57.2797 -0.161859 55.5766 0.995639 54.6331L60.3844 6.22593C60.414 6.20182 60.4439 6.17844 60.4742 6.15579C60.9591 5.69488 61.6149 5.41203 62.3367 5.41203C63.83 5.41203 65.0406 6.62258 65.0406 8.11588V46.7423C65.0406 48.2356 63.83 49.4461 62.3367 49.4461Z" fill="white"/>
</svg>
