<svg width="57" height="66" viewBox="0 0 57 66" fill="none" xmlns="http://www.w3.org/2000/svg">
<path d="M10.3618 49.59C10.3618 51.3022 11.7555 52.6997 13.4703 52.6997H17.0239V61.5093C17.0239 63.741 18.8117 65.5629 21.0081 65.5629C23.2118 65.5629 24.9923 63.7483 24.9923 61.5093V52.6924H31.1947V61.502C31.1947 63.7337 32.9825 65.5556 35.1789 65.5556C37.3826 65.5556 39.1631 63.741 39.1631 61.502V52.6924H42.7167C44.4315 52.6924 45.8252 51.2948 45.8252 49.5827V20.666H10.3618V49.59ZM36.4194 5.68088L39.6958 0.924855C39.8855 0.646811 39.8417 0.273645 39.5863 0.0907212C39.3309 -0.084886 38.9661 0.00291806 38.7763 0.280963L35.3759 5.22723C33.1357 4.34188 30.6402 3.85164 28.0205 3.85164C25.4009 3.85164 22.9053 4.34188 20.6651 5.22723L17.2647 0.28828C17.075 0.0102349 16.7102 -0.0848855 16.4548 0.0980386C16.1994 0.273646 16.1556 0.639494 16.3453 0.932172L19.6217 5.6882C14.4116 8.11743 10.7631 12.7198 10.2961 18.0978H45.7596C45.278 12.7125 41.6222 8.11012 36.4194 5.68088ZM20.5338 13.1808C20.1456 13.1808 19.7661 13.0653 19.4433 12.8491C19.1205 12.6328 18.8689 12.3254 18.7203 11.9657C18.5717 11.6061 18.5329 11.2103 18.6086 10.8285C18.6844 10.4467 18.8713 10.096 19.1458 9.82073C19.4203 9.54547 19.7701 9.35801 20.1509 9.28206C20.5316 9.20612 20.9263 9.2451 21.285 9.39407C21.6436 9.54304 21.9502 9.79532 22.1659 10.119C22.3816 10.4427 22.4967 10.8232 22.4967 11.2125C22.4953 11.7341 22.2881 12.234 21.9203 12.6028C21.5525 12.9716 21.054 13.1794 20.5338 13.1808ZM35.7408 13.1808C35.3526 13.1808 34.973 13.0653 34.6502 12.8491C34.3274 12.6328 34.0759 12.3254 33.9273 11.9657C33.7787 11.6061 33.7399 11.2103 33.8156 10.8285C33.8913 10.4467 34.0783 10.096 34.3528 9.82073C34.6273 9.54547 34.9771 9.35801 35.3578 9.28206C35.7386 9.20612 36.1333 9.2451 36.4919 9.39407C36.8506 9.54304 37.1572 9.79532 37.3729 10.119C37.5885 10.4427 37.7037 10.8232 37.7037 11.2125C37.7023 11.7341 37.4951 12.234 37.1273 12.6028C36.7594 12.9716 36.261 13.1794 35.7408 13.1808ZM52.0423 20.549C49.8386 20.549 48.0581 22.3636 48.0581 24.6026V40.4365C48.0581 42.6681 49.8459 44.4901 52.0423 44.4901C54.246 44.4901 56.0265 42.6755 56.0265 40.4365V24.5952C56.0338 22.3562 54.2533 20.549 52.0423 20.549ZM3.98417 20.549C1.78047 20.549 0 22.3636 0 24.6026V40.4365C0 42.6681 1.78777 44.4901 3.98417 44.4901C6.18787 44.4901 7.96834 42.6755 7.96834 40.4365V24.5952C7.96834 22.3562 6.18057 20.549 3.98417 20.549Z" fill="#E9E9EA"/>
</svg>
