<svg width="55" height="43" viewBox="0 0 55 43" fill="none" xmlns="http://www.w3.org/2000/svg">
<path fill-rule="evenodd" clip-rule="evenodd" d="M35.2921 0.434695C34.5494 -0.184713 33.4452 -0.0847739 32.8258 0.657913C32.2064 1.4006 32.3063 2.50479 33.049 3.1242L49.1861 16.5826C49.9288 17.202 51.033 17.1021 51.6524 16.3594C52.2718 15.6167 52.1718 14.5125 51.4291 13.8931L35.2921 0.434695ZM35.1457 42.0095C34.403 41.3901 34.3031 40.2859 34.9225 39.5432L41.1059 32.1291C44.0982 28.5414 41.5827 23.0881 36.9112 23.0355L2.44685 22.6474C1.47983 22.6365 0.704736 21.8437 0.715627 20.8767C0.726518 19.9097 1.51927 19.1346 2.4863 19.1455L52.1021 19.7043C52.1268 19.7046 52.1513 19.7053 52.1757 19.7066C52.6081 19.6785 53.0517 19.8098 53.4107 20.1093C54.1534 20.7287 54.2534 21.8329 53.634 22.5755L37.612 41.7863C36.9926 42.529 35.8884 42.6289 35.1457 42.0095Z" fill="#121212"/>
</svg>
