<svg width="76" height="70" viewBox="0 0 76 70" fill="none" xmlns="http://www.w3.org/2000/svg">
<path fill-rule="evenodd" clip-rule="evenodd" d="M24.9922 0C23.2476 0 21.8334 1.41424 21.8334 3.15879C21.8334 4.90335 23.2476 6.31758 24.9922 6.31758L62.8977 6.31758C64.6422 6.31758 66.0565 4.90334 66.0565 3.15879C66.0565 1.41424 64.6422 -3.46632e-06 62.8977 -3.3138e-06L24.9922 0ZM72.8253 57.7656C71.0807 57.7656 69.6665 56.3514 69.6665 54.6068V37.1913C69.6665 28.7637 59.881 24.1154 53.3485 29.44L5.15463 68.7223C3.80237 69.8245 1.81264 69.6218 0.710426 68.2696C-0.391785 66.9173 -0.189082 64.9276 1.16317 63.8253L70.5446 7.27329C70.5791 7.24518 70.6139 7.21794 70.6492 7.19152C71.2157 6.65295 71.9819 6.32243 72.8253 6.32243C74.5699 6.32243 75.9841 7.73667 75.9841 9.48122L75.9841 54.6068C75.9841 56.3514 74.5699 57.7656 72.8253 57.7656Z" fill="white"/>
</svg>
