<svg width="215" height="215" viewBox="0 0 215 215" fill="none" xmlns="http://www.w3.org/2000/svg">
<circle opacity="0.3" cx="107.5" cy="107.5" r="107.5" fill="#012418"/>
<path d="M77.0662 103.673C77.0662 107.671 79.4863 110.302 84.3264 111.564C94.4275 113.879 99.478 119.561 99.478 128.61C99.478 133.45 97.7945 137.449 94.4275 140.605C91.2709 143.762 87.0621 145.34 81.8011 145.34C76.7506 145.34 72.2261 143.236 68.2278 139.027C64.4399 134.608 62.5459 127.979 62.5459 119.14C62.5459 110.091 65.0712 101.148 70.1217 92.3093C75.3827 83.4708 82.8533 75.895 92.5335 69.5818L97.2684 75.5793C83.8003 84.4178 77.0662 93.7823 77.0662 103.673ZM129.466 103.673C129.466 107.671 131.886 110.302 136.726 111.564C146.827 113.879 151.877 119.561 151.877 128.61C151.877 133.45 150.194 137.449 146.827 140.605C143.67 143.762 139.462 145.34 134.201 145.34C129.15 145.34 124.626 143.236 120.627 139.027C116.839 134.608 114.945 127.979 114.945 119.14C114.945 110.091 117.471 101.148 122.521 92.3093C127.782 83.4708 135.253 75.895 144.933 69.5818L149.668 75.5793C136.2 84.4178 129.466 93.7823 129.466 103.673Z" fill="white"/>
</svg>
