<svg width="82" height="82" viewBox="0 0 82 82" fill="none" xmlns="http://www.w3.org/2000/svg">
<path d="M31.6001 45.0063H22.3209C22.3209 45.0063 22.3208 45.0063 22.3207 45.0063C21.8428 45.0062 21.3729 44.8839 20.9555 44.6511C20.5381 44.4182 20.1872 44.0825 19.936 43.6758C19.6848 43.2692 19.5418 42.8051 19.5204 42.3276C19.4991 41.8501 19.6002 41.375 19.8141 40.9476L19.8142 40.9473L27.6305 25.3187C27.9586 24.6634 28.5333 24.1652 29.2285 23.9335C29.9235 23.7018 30.682 23.7554 31.3375 24.0826C31.9925 24.4107 32.4905 24.9853 32.7222 25.6803L33.8201 25.3143L32.7222 25.6803C32.9539 26.3754 32.9002 27.134 32.5729 27.7895C32.5729 27.7896 32.5728 27.7897 32.5728 27.7898L27.5685 37.8023L26.7315 39.477H28.6037H37.8831C39.9644 39.477 41.3224 41.67 40.3896 43.5359C40.3895 43.5359 40.3895 43.536 40.3895 43.536L32.5731 59.165L32.565 59.181L32.5575 59.1973C32.4023 59.5334 32.181 59.8349 31.907 60.084C31.633 60.333 31.3118 60.5244 30.9624 60.6469C30.613 60.7694 30.2425 60.8205 29.873 60.7971C29.5035 60.7737 29.1425 60.6763 28.8113 60.5107C28.4801 60.3451 28.1856 60.1147 27.9452 59.8331C27.7048 59.5516 27.5233 59.2246 27.4117 58.8716C27.3001 58.5185 27.2605 58.1467 27.2953 57.7781C27.3301 57.4095 27.4386 57.0516 27.6143 56.7257L27.6228 56.7099L27.6309 56.6938L32.6353 46.681L33.4723 45.0063H31.6001Z" fill="#2A2A29" stroke="#E9E9EA" stroke-width="2.31461"/>
<path d="M52.4768 42.2416V43.3989H53.6341H57.556C59.3295 43.3989 61.0302 44.1034 62.2842 45.3574C63.5382 46.6114 64.2427 48.3121 64.2427 50.0855V59.8905C64.2427 60.7175 64.5712 61.5106 65.156 62.0954C65.7408 62.6802 66.534 63.0088 67.361 63.0088C68.188 63.0088 68.9812 62.6802 69.5659 62.0954C70.1507 61.5107 70.4793 60.7175 70.4793 59.8905V36.0214V35.542L70.1403 35.203L65.2378 30.3005L64.4195 29.4822L63.6012 30.3006L63.4325 30.4692L63.4254 30.4763L63.4184 30.4835C63.1634 30.7476 62.8583 30.9582 62.521 31.1031C62.1837 31.248 61.8209 31.3243 61.4538 31.3275C61.0868 31.3306 60.7227 31.2607 60.3829 31.1217C60.0432 30.9827 59.7345 30.7774 59.4749 30.5178C59.2153 30.2582 59.01 29.9495 58.871 29.6098C58.732 29.27 58.6621 28.906 58.6653 28.5389C58.6685 28.1718 58.7447 27.809 58.8896 27.4717C59.0345 27.1344 59.2451 26.8293 59.5092 26.5743L59.5164 26.5673L59.5235 26.5602L59.6922 26.3916L60.5105 25.5732L59.6922 24.7549L59.5313 24.594C59.0317 24.0733 58.7554 23.3777 58.7617 22.6559C58.7679 21.931 59.0587 21.2376 59.5713 20.725C60.0839 20.2124 60.7773 19.9217 61.5022 19.9154C62.224 19.9091 62.9196 20.1854 63.4403 20.685L74.0493 31.294L74.0494 31.2941C75.3034 32.5478 76.0082 34.2482 76.0086 36.0214C76.0086 36.0214 76.0086 36.0215 76.0086 36.0216V59.8905C76.0086 62.184 75.0975 64.3835 73.4758 66.0053C71.854 67.627 69.6545 68.5381 67.361 68.5381C65.0675 68.5381 62.8679 67.627 61.2462 66.0053C59.6244 64.3835 58.7134 62.184 58.7134 59.8905V50.0855V48.9282H57.556H53.6341H52.4768V50.0855V69.6954V70.8527H53.6341C54.3673 70.8527 55.0705 71.144 55.589 71.6625C56.1075 72.1809 56.3987 72.8841 56.3987 73.6174C56.3987 74.3506 56.1075 75.0538 55.589 75.5723C55.0705 76.0908 54.3673 76.382 53.6341 76.382H6.57041C5.83717 76.382 5.13397 76.0908 4.61549 75.5723C4.09702 75.0538 3.80574 74.3506 3.80574 73.6174C3.80574 72.8841 4.09702 72.1809 4.61549 71.6625C5.13397 71.144 5.83717 70.8527 6.57041 70.8527H7.72771V69.6954V14.7878C7.72771 13.0144 8.4322 11.3136 9.68618 10.0596C10.9402 8.80563 12.6409 8.10115 14.4144 8.10115H45.7901C47.5635 8.10115 49.2643 8.80563 50.5183 10.0596C51.7723 11.3136 52.4768 13.0144 52.4768 14.7878V42.2416ZM46.9474 14.7878V13.6305H45.7901H14.4144H13.2571V14.7878V69.6954V70.8527H14.4144H45.7901H46.9474V69.6954V14.7878Z" fill="#2A2A29" stroke="#E9E9EA" stroke-width="2.31461"/>
</svg>
