<svg width="43" height="30" viewBox="0 0 43 30" fill="none" xmlns="http://www.w3.org/2000/svg">
<path fill-rule="evenodd" clip-rule="evenodd" d="M29.977 1.06352C29.3362 0.538442 28.3911 0.63223 27.8661 1.273C27.341 1.91377 27.4348 2.85887 28.0755 3.38395L38.8233 12.1912C39.4641 12.7163 40.4092 12.6225 40.9343 11.9817C41.4594 11.341 41.3656 10.3958 40.7248 9.87077L29.977 1.06352ZM0.499717 14.9998C0.499717 14.1714 1.17129 13.4998 1.99972 13.4998L40.9997 13.4998C41.4681 13.4998 41.8863 13.7145 42.1614 14.0508C42.7192 14.5877 42.7793 15.472 42.2801 16.0812L31.7953 28.8761C31.2702 29.5169 30.3251 29.6107 29.6844 29.0856C29.0436 28.5605 28.9498 27.6154 29.4749 26.9747L33.1506 22.4891C35.1115 20.0961 33.409 16.4998 30.3151 16.4998L1.99972 16.4998C1.17129 16.4998 0.499718 15.8283 0.499717 14.9998Z" fill="white"/>
</svg>
