<svg width="29" height="28" viewBox="0 0 29 28" fill="none" xmlns="http://www.w3.org/2000/svg">
<path fill-rule="evenodd" clip-rule="evenodd" d="M9.50366 0.931519C8.67524 0.931519 8.00366 1.60309 8.00366 2.43152C8.00366 3.25995 8.67524 3.93152 9.50366 3.93152L23.3991 3.93152C24.2275 3.93152 24.8991 3.25995 24.8991 2.43152C24.8991 1.60309 24.2275 0.931519 23.3991 0.931519H9.50366ZM27.0384 22.7915C26.21 22.7915 25.5384 22.1199 25.5384 21.2915V15.6274C25.5384 12.538 21.9512 10.8341 19.5565 12.7859L2.44775 26.7311C1.80561 27.2545 0.860752 27.1583 0.337351 26.5161C-0.18605 25.874 -0.0897939 24.9291 0.552345 24.4057L25.9862 3.67486C25.9972 3.66593 26.0082 3.65718 26.0193 3.64862C26.2869 3.4008 26.6449 3.24932 27.0384 3.24932C27.8668 3.24932 28.5384 3.92089 28.5384 4.74932V21.2915C28.5384 22.1199 27.8668 22.7915 27.0384 22.7915Z" fill="#199753"/>
</svg>
