<svg width="84" height="30" viewBox="0 0 84 30" fill="none" xmlns="http://www.w3.org/2000/svg">
<path fill-rule="evenodd" clip-rule="evenodd" d="M70.9774 1.0639C70.3367 0.538826 69.3916 0.632614 68.8665 1.27338C68.3414 1.91415 68.4352 2.85926 69.076 3.38434L79.8238 12.1916C80.4645 12.7167 81.4096 12.6229 81.9347 11.9821C82.4598 11.3413 82.366 10.3962 81.7252 9.87115L70.9774 1.0639ZM70.6848 29.086C70.044 28.5609 69.9502 27.6158 70.4753 26.9751L74.0494 22.6134C76.0104 20.2204 74.3079 16.6241 71.214 16.6241L2.11114 16.6242C1.28271 16.6241 0.611138 15.9526 0.611138 15.1242C0.611138 14.2957 1.28271 13.6241 2.11114 13.6241L82.1111 13.6241C82.4437 13.6241 82.751 13.7324 82.9997 13.9155C83.0239 13.9331 83.0477 13.9514 83.0711 13.9706C83.7118 14.4957 83.8056 15.4408 83.2806 16.0815L72.7957 28.8765C72.2707 29.5173 71.3256 29.6111 70.6848 29.086Z" fill="white"/>
</svg>
