<svg width="85" height="85" viewBox="0 0 85 85" fill="none" xmlns="http://www.w3.org/2000/svg">
<path d="M53.0603 31.6811L38.9798 45.7616L31.9395 38.7213M70.661 35.7822C70.661 58.9033 53.1727 69.2693 45.7588 72.6251L45.7494 72.6292C44.9697 72.9821 44.5788 73.159 43.6928 73.3112C43.1316 73.4075 41.8717 73.4075 41.3106 73.3112C40.421 73.1584 40.0261 72.9809 39.2401 72.6251C31.8262 69.2693 14.3389 58.9033 14.3389 35.7822V21.8254C14.3389 17.8825 14.3389 15.9096 15.1062 14.4036C15.7812 13.0789 16.8574 12.0026 18.1821 11.3276C19.6881 10.5603 21.6611 10.5603 25.604 10.5603H59.3972C63.3401 10.5603 65.3088 10.5603 66.8148 11.3276C68.1396 12.0026 69.2194 13.0789 69.8944 14.4036C70.661 15.9081 70.661 17.8786 70.661 21.8138V35.7822Z" stroke="#2A2A29" stroke-width="3.47191" stroke-linecap="round" stroke-linejoin="round"/>
</svg>
