<svg width="74" height="74" viewBox="0 0 74 74" fill="none" xmlns="http://www.w3.org/2000/svg">
<path d="M31.609 53.979V64.8342C31.5949 65.2423 31.4228 65.6291 31.129 65.9128C30.8352 66.1964 30.4426 66.3549 30.0342 66.3546H18.6414C16.7664 66.0388 15.069 65.055 13.8628 63.5852" stroke="#2A2A29" stroke-width="2.94148" stroke-linecap="round" stroke-linejoin="round"/>
<path d="M55.2199 33.8433L63.2513 28.413C63.431 28.3337 63.6252 28.2927 63.8215 28.2927C64.0179 28.2927 64.2121 28.3337 64.3917 28.413C64.6015 28.4375 64.803 28.5088 64.9816 28.6216C65.1602 28.7343 65.3112 28.8857 65.4235 29.0646L71.6683 38.4047C72.0414 39.1556 72.2356 39.9827 72.2356 40.8212C72.2356 41.6597 72.0414 42.4868 71.6683 43.2377M13.8628 63.6338C13.8628 63.6338 7.94383 58.4805 21.6825 44.7527H27.8133L18.6361 29.6076H1.76416L6.37991 35.5267C6.37991 35.5267 3.28464 36.0697 3.28464 40.3596C4.90941 48.8523 8.53989 56.8337 13.8737 63.6393L13.8628 63.6338Z" stroke="#2A2A29" stroke-width="2.94148" stroke-linecap="round" stroke-linejoin="round"/>
<path d="M22.6599 22.499L15.329 19.1323C14.9675 18.9454 14.6889 18.63 14.5482 18.2481C14.4075 17.8662 14.4148 17.4455 14.5688 17.0687L20.7593 4.69854C21.1729 3.96552 21.7512 3.33866 22.4486 2.86746C23.146 2.39625 23.9433 2.0936 24.7777 1.9834M71.8801 42.6889C71.8801 42.6889 70.1424 49.7482 52.179 48.1191V43.3948L41.6496 57.1823L51.6414 72.5392L52.1844 65.3169C52.1844 65.3169 54.1882 67.7605 57.6093 65.3169C63.3424 58.4359 68.1409 50.8274 71.8801 42.6889Z" stroke="#2A2A29" stroke-width="2.94148" stroke-linecap="round" stroke-linejoin="round"/>
<path d="M24.7725 1.98384C24.7725 1.98384 31.4517 1.98384 39.9121 18.2693L35.5136 23.6996H53.7539L60.216 6.64846L52.6136 8.98348C52.5021 7.80621 52.075 6.68083 51.3773 5.72605C50.6796 4.77126 49.7372 4.02246 48.6494 3.55862C44.9101 2.3205 40.9735 1.78654 37.0395 1.98384H24.7725Z" stroke="#2A2A29" stroke-width="2.94148" stroke-linecap="round" stroke-linejoin="round"/>
</svg>
