<svg width="18" height="18" viewBox="0 0 18 18" fill="none" xmlns="http://www.w3.org/2000/svg">
<path d="M16 -0.000488281C16.5304 -0.000488281 17.0391 0.210225 17.4142 0.585298C17.7893 0.960371 18 1.46908 18 1.99951V15.9995C18 16.5299 17.7893 17.0387 17.4142 17.4137C17.0391 17.7888 16.5304 17.9995 16 17.9995H2C1.46957 17.9995 0.960859 17.7888 0.585786 17.4137C0.210714 17.0387 0 16.5299 0 15.9995V1.99951C0 1.46908 0.210714 0.960371 0.585786 0.585298C0.960859 0.210225 1.46957 -0.000488281 2 -0.000488281H16ZM15.5 15.4995V10.1995C15.5 9.33491 15.1565 8.50571 14.5452 7.89434C13.9338 7.28297 13.1046 6.93951 12.24 6.93951C11.39 6.93951 10.4 7.45951 9.92 8.23951V7.12951H7.13V15.4995H9.92V10.5695C9.92 9.79951 10.54 9.16951 11.31 9.16951C11.6813 9.16951 12.0374 9.31701 12.2999 9.57956C12.5625 9.84211 12.71 10.1982 12.71 10.5695V15.4995H15.5ZM3.88 5.55951C4.32556 5.55951 4.75288 5.38251 5.06794 5.06745C5.383 4.75239 5.56 4.32508 5.56 3.87951C5.56 2.94951 4.81 2.18951 3.88 2.18951C3.43178 2.18951 3.00193 2.36756 2.68499 2.6845C2.36805 3.00144 2.19 3.4313 2.19 3.87951C2.19 4.80951 2.95 5.55951 3.88 5.55951ZM5.27 15.4995V7.12951H2.5V15.4995H5.27Z" fill="white"/>
</svg>
