<svg width="18" height="18" viewBox="0 0 18 18" fill="none" xmlns="http://www.w3.org/2000/svg">
<path d="M9 1.62602C11.3855 1.62602 11.7108 1.62602 12.6867 1.62602C13.5542 1.62602 13.988 1.84289 14.3133 1.95132C14.747 2.16819 15.0723 2.27662 15.3976 2.60192C15.7229 2.92722 15.9398 3.25252 16.0482 3.68626C16.1566 4.01156 16.2651 4.4453 16.3735 5.31277C16.3735 6.28867 16.3735 6.50554 16.3735 8.99951C16.3735 11.4935 16.3735 11.7104 16.3735 12.6863C16.3735 13.5537 16.1566 13.9875 16.0482 14.3128C15.8313 14.7465 15.7229 15.0718 15.3976 15.3971C15.0723 15.7224 14.747 15.9393 14.3133 16.0477C13.988 16.1561 13.5542 16.2646 12.6867 16.373C11.7108 16.373 11.494 16.373 9 16.373C6.50602 16.373 6.28916 16.373 5.31325 16.373C4.44578 16.373 4.01205 16.1561 3.68675 16.0477C3.25301 15.8308 2.92771 15.7224 2.60241 15.3971C2.27711 15.0718 2.06024 14.7465 1.95181 14.3128C1.84337 13.9875 1.73494 13.5537 1.62651 12.6863C1.62651 11.7104 1.62651 11.4935 1.62651 8.99951C1.62651 6.50554 1.62651 6.28867 1.62651 5.31277C1.62651 4.4453 1.84337 4.01156 1.95181 3.68626C2.16868 3.25252 2.27711 2.92722 2.60241 2.60192C2.92771 2.27662 3.25301 2.05975 3.68675 1.95132C4.01205 1.84289 4.44578 1.73445 5.31325 1.62602C6.28916 1.62602 6.61446 1.62602 9 1.62602ZM9 -0.000488281C6.50602 -0.000488281 6.28916 -0.000488281 5.31325 -0.000488281C4.33735 -0.000488281 3.68675 0.21638 3.14458 0.433247C2.60241 0.650115 2.06024 0.975416 1.51807 1.51758C0.975904 2.05975 0.759037 2.49349 0.433736 3.14409C0.216868 3.68626 0.108434 4.33686 0 5.31277C0 6.28867 0 6.61397 0 8.99951C0 11.4935 0 11.7104 0 12.6863C0 13.6622 0.216868 14.3128 0.433736 14.8549C0.650603 15.3971 0.975904 15.9393 1.51807 16.4814C2.06024 17.0236 2.49398 17.2405 3.14458 17.5658C3.68675 17.7826 4.33735 17.8911 5.31325 17.9995C6.28916 17.9995 6.61446 17.9995 9 17.9995C11.3855 17.9995 11.7108 17.9995 12.6867 17.9995C13.6627 17.9995 14.3133 17.7826 14.8554 17.5658C15.3976 17.3489 15.9398 17.0236 16.4819 16.4814C17.0241 15.9393 17.241 15.5055 17.5663 14.8549C17.7831 14.3128 17.8916 13.6622 18 12.6863C18 11.7104 18 11.3851 18 8.99951C18 6.61397 18 6.28867 18 5.31277C18 4.33686 17.7831 3.68626 17.5663 3.14409C17.3494 2.60192 17.0241 2.05975 16.4819 1.51758C15.9398 0.975416 15.506 0.758549 14.8554 0.433247C14.3133 0.21638 13.6627 0.107945 12.6867 -0.000488281C11.7108 -0.000488281 11.494 -0.000488281 9 -0.000488281Z" fill="white"/>
<path d="M9 4.33686C6.39759 4.33686 4.33735 6.3971 4.33735 8.99951C4.33735 11.6019 6.39759 13.6622 9 13.6622C11.6024 13.6622 13.6627 11.6019 13.6627 8.99951C13.6627 6.3971 11.6024 4.33686 9 4.33686ZM9 12.0357C7.3735 12.0357 5.96386 10.7345 5.96386 8.99951C5.96386 7.37301 7.26506 5.96337 9 5.96337C10.6265 5.96337 12.0361 7.26457 12.0361 8.99951C12.0361 10.626 10.6265 12.0357 9 12.0357Z" fill="white"/>
<path d="M13.7711 5.31277C14.3699 5.31277 14.8554 4.82729 14.8554 4.22843C14.8554 3.62957 14.3699 3.14409 13.7711 3.14409C13.1722 3.14409 12.6867 3.62957 12.6867 4.22843C12.6867 4.82729 13.1722 5.31277 13.7711 5.31277Z" fill="white"/>
</svg>
